<?xml version="1.0" encoding="utf-8"?>
<!-- Generator: Adobe Illustrator 24.1.3, SVG Export Plug-In . SVG Version: 6.00 Build 0)  -->
<svg version="1.1" id="Camada_1" xmlns="http://www.w3.org/2000/svg" xmlns:xlink="http://www.w3.org/1999/xlink" x="0px" y="0px"
	 viewBox="0 0 400 400" style="enable-background:new 0 0 400 400;" xml:space="preserve">
<style type="text/css">
	.st0{opacity:0.56;}
	.st1{fill:url(#SVGID_1_);}
	.st2{fill:url(#SVGID_2_);}
	.st3{fill:#3C546D;}
</style>
<g>
	<g class="st0">
		<path d="M69.36,171.56l-25.29,14.58v-10.59l25.29-14.58V73.8l18.89-5.4c29.45-8.42,68.42-13.05,109.74-13.05v64.4l0,0h0
			c-3.31,0-6.61,0.04-9.89,0.11c-0.94,0.02-1.88,0.05-2.82,0.08c-2.42,0.06-4.83,0.15-7.22,0.25c-0.94,0.04-1.88,0.08-2.82,0.13
			c-2.66,0.13-5.29,0.28-7.9,0.45c-0.55,0.04-1.1,0.07-1.65,0.1c-11.22,0.79-21.98,1.97-31.92,3.52v9.99l-64.4,37.19V171.56z
			 M133.76,198.78L133.76,198.78l0-36.51l-64.4,37.19v22.79c0,4.4,0.31,8.79,0.86,13.15l-17.11,9.86c-3.9-3.04-9.41-3.59-13.95-0.96
			c-5.72,3.32-7.88,10.78-4.8,16.63c3.33,6.32,11.2,8.56,17.33,5.02c4.61-2.66,6.87-7.82,6.09-12.79l14.11-8.13
			c0,0.02,0.01,0.03,0.01,0.05l61.87-35.75V198.78z M190.7,289.72c-0.01,0-0.01-0.01-0.02-0.01c-2.37-1.18-4.67-2.41-6.93-3.67h0
			l0,0c-3.11-1.74-6.07-3.58-8.95-5.47l-84.28,48.68v10.54l31.53-18.17c18.16,14.96,40.19,27.42,64.97,36.59l10.96,4.05v-69.08
			c0,0,0,0,0,0C195.5,292.06,193.08,290.91,190.7,289.72z M154.64,264.31c-1.39-1.4-2.74-2.81-4.02-4.25
			c-0.59-0.67-1.2-1.38-1.8-2.11c-0.16-0.2-0.33-0.4-0.49-0.6c-0.5-0.61-1-1.24-1.5-1.89c-0.13-0.16-0.25-0.32-0.38-0.49
			c-0.63-0.82-1.25-1.67-1.87-2.55c-0.07-0.11-0.15-0.22-0.22-0.32c-0.54-0.78-1.08-1.58-1.6-2.41c-0.12-0.19-0.25-0.39-0.37-0.58
			c-1.19-1.9-2.33-3.9-3.36-5.99c-0.08-0.16-0.15-0.32-0.23-0.48c-0.45-0.93-0.87-1.88-1.28-2.84c-0.07-0.16-0.14-0.32-0.2-0.48
			c-0.46-1.12-0.88-2.26-1.27-3.42l-56.29,32.53c4.54,9.92,10.55,19.55,17.96,28.75L154.64,264.31z"/>
		<path d="M368.87,158.38c-4.5-7-13.79-9.57-21.24-5.87c-7.04,3.49-10.4,11.17-8.85,18.35l-12.17,7.03v-0.03l-41.69,24.07v-10.6
			l41.69-24.07v-54.15l-64.4,37.14v72c0,15.51-9.17,29.12-16.86,37.81c-11.59,13.09-27.82,24.41-47.37,33.1h0v69.08l10.96-4.05
			c34.58-12.79,63.84-31.96,84.62-55.44c10.66-12.04,18.82-24.9,24.38-38.24l28.43-16.42v-10.6l-11.82,6.83l0,0l-46.73,26.97
			c0.42,4.59-2.07,9.23-6.82,11.14c-4.53,1.82-9.88,0.3-12.78-3.64c-3.93-5.33-2.27-12.73,3.31-15.95c3.78-2.18,8.3-1.82,11.66,0.52
			l42.02-24.25c0.91-5.59,1.4-11.22,1.4-16.87v-33.77l16.54-9.56c5.16,5.27,13.4,6.61,20.08,2.76
			C371.38,176.98,374.02,166.39,368.87,158.38z M360.11,173.22c-4.24,3.65-10.7,1.92-12.54-3.36c-1.03-2.95-0.13-6.33,2.24-8.37
			c4.24-3.65,10.7-1.92,12.55,3.36C363.38,167.8,362.48,171.18,360.11,173.22z M197.99,119.75v-64.4c23.75,0,46.67,1.56,67.49,4.47
			l-30.54,17.62c-3.77-2.63-9.01-2.77-13.02,0.38c-3.84,3.02-5.18,8.4-3.22,12.87c2.66,6.07,9.89,8.33,15.46,5.11
			c3.8-2.19,5.75-6.32,5.38-10.42l40.38-23.3c0,0,0,0,0,0l3.04-1.76l27.33-15.77l-0.01-0.01l2.5-1.44v10.6l-19.26,11.13
			c4.93,1.11,9.69,2.3,14.19,3.59l18.89,5.4v18.11l14.72-8.5c-0.82-5.48,2.05-11.17,7.69-13.47c5.22-2.13,11.38-0.39,14.72,4.15
			c4.5,6.12,2.6,14.6-3.79,18.29c-4.57,2.64-10.11,2.06-14.01-1.03l-19.32,11.17v0l-64.4,37.14v-15.27
			C243,121.39,220.8,119.75,197.99,119.75z"/>
		<path d="M221.14,179.61c0-13.66-11.83-24.55-25.79-23c-10.48,1.16-18.98,9.5-20.31,19.96c-1.31,10.3,4.16,19.46,12.54,23.69v23.07
			c0,5.15,3.62,9.76,8.71,10.57c6.51,1.03,12.12-3.97,12.12-10.28v-23.37C215.95,196.45,221.14,188.65,221.14,179.61z"/>
	</g>
	<g>
		<g>
			<linearGradient id="SVGID_1_" gradientUnits="userSpaceOnUse" x1="113.4649" y1="359.2459" x2="113.4649" y2="52.345">
				<stop  offset="0.05" style="stop-color:#009BA7"/>
				<stop  offset="0.2938" style="stop-color:#0397A4"/>
				<stop  offset="0.5107" style="stop-color:#0C8D9B"/>
				<stop  offset="0.7171" style="stop-color:#1B7A8C"/>
				<stop  offset="0.9161" style="stop-color:#316178"/>
				<stop  offset="1" style="stop-color:#3C546D"/>
			</linearGradient>
			<path class="st1" d="M67.36,168.56l-25.29,14.58v-10.59l25.29-14.58V70.8l18.89-5.4c29.45-8.42,68.42-13.05,109.74-13.05v64.4
				l0,0h0c-3.31,0-6.61,0.04-9.89,0.11c-0.94,0.02-1.88,0.05-2.82,0.08c-2.42,0.06-4.83,0.15-7.22,0.25
				c-0.94,0.04-1.88,0.08-2.82,0.13c-2.66,0.13-5.29,0.28-7.9,0.45c-0.55,0.04-1.1,0.07-1.65,0.1c-11.22,0.79-21.98,1.97-31.92,3.52
				v9.99l-64.4,37.19V168.56z M131.76,195.78L131.76,195.78l0-36.51l-64.4,37.19v22.79c0,4.4,0.31,8.79,0.86,13.15l-17.11,9.86
				c-3.9-3.04-9.41-3.59-13.95-0.96c-5.72,3.32-7.88,10.78-4.8,16.63c3.33,6.32,11.2,8.56,17.33,5.02
				c4.61-2.66,6.87-7.82,6.09-12.79l14.11-8.13c0,0.02,0.01,0.03,0.01,0.05l61.87-35.75V195.78z M188.7,286.72
				c-0.01,0-0.01-0.01-0.02-0.01c-2.37-1.18-4.67-2.41-6.93-3.67h0l0,0c-3.11-1.74-6.07-3.58-8.95-5.47l-84.28,48.68v10.54
				l31.53-18.17c18.16,14.96,40.19,27.42,64.97,36.59l10.96,4.05v-69.08c0,0,0,0,0,0C193.5,289.06,191.08,287.91,188.7,286.72z
				 M152.64,261.31c-1.39-1.4-2.74-2.81-4.02-4.25c-0.59-0.67-1.2-1.38-1.8-2.11c-0.16-0.2-0.33-0.4-0.49-0.6
				c-0.5-0.61-1-1.24-1.5-1.89c-0.13-0.16-0.25-0.32-0.38-0.49c-0.63-0.82-1.25-1.67-1.87-2.55c-0.07-0.11-0.15-0.22-0.22-0.32
				c-0.54-0.78-1.08-1.58-1.6-2.41c-0.12-0.19-0.25-0.39-0.37-0.58c-1.19-1.9-2.33-3.9-3.36-5.99c-0.08-0.16-0.15-0.32-0.23-0.48
				c-0.45-0.93-0.87-1.88-1.28-2.84c-0.07-0.16-0.14-0.32-0.2-0.48c-0.46-1.12-0.88-2.26-1.27-3.42l-56.29,32.53
				c4.54,9.92,10.55,19.55,17.96,28.75L152.64,261.31z"/>
			<linearGradient id="SVGID_2_" gradientUnits="userSpaceOnUse" x1="282.749" y1="359.2464" x2="282.749" y2="40.087">
				<stop  offset="0.0806" style="stop-color:#009BA7"/>
				<stop  offset="0.2776" style="stop-color:#0496A3"/>
				<stop  offset="0.5192" style="stop-color:#118796"/>
				<stop  offset="0.783" style="stop-color:#256E82"/>
				<stop  offset="1" style="stop-color:#3B546D"/>
			</linearGradient>
			<path class="st2" d="M366.87,155.38c-4.5-7-13.79-9.57-21.24-5.87c-7.04,3.49-10.4,11.17-8.85,18.35l-12.17,7.03v-0.03
				l-41.69,24.07v-10.6l41.69-24.07v-54.15l-64.4,37.14v72c0,15.51-9.17,29.12-16.86,37.81c-11.59,13.09-27.82,24.41-47.37,33.1h0
				v69.08l10.96-4.05c34.58-12.79,63.84-31.96,84.62-55.44c10.66-12.04,18.82-24.9,24.38-38.24l28.43-16.42v-10.6l-11.82,6.83l0,0
				l-46.73,26.97c0.42,4.59-2.07,9.23-6.82,11.14c-4.53,1.82-9.88,0.3-12.78-3.64c-3.93-5.33-2.27-12.73,3.31-15.95
				c3.78-2.18,8.3-1.82,11.66,0.52l42.02-24.25c0.91-5.59,1.4-11.22,1.4-16.87v-33.77l16.54-9.56c5.16,5.27,13.4,6.61,20.08,2.76
				C369.38,173.98,372.02,163.39,366.87,155.38z M358.11,170.22c-4.24,3.65-10.7,1.92-12.54-3.36c-1.03-2.95-0.13-6.33,2.24-8.37
				c4.24-3.65,10.7-1.92,12.55,3.36C361.38,164.8,360.48,168.18,358.11,170.22z M195.99,116.75v-64.4c23.75,0,46.67,1.56,67.49,4.47
				l-30.54,17.62c-3.77-2.63-9.01-2.77-13.02,0.38c-3.84,3.02-5.18,8.4-3.22,12.87c2.66,6.07,9.89,8.33,15.46,5.11
				c3.8-2.19,5.75-6.32,5.38-10.42l40.38-23.3c0,0,0,0,0,0l3.04-1.76l27.33-15.77l-0.01-0.01l2.5-1.44v10.6l-19.26,11.13
				c4.93,1.11,9.69,2.3,14.19,3.59l18.89,5.4v18.11l14.72-8.5c-0.82-5.48,2.05-11.17,7.69-13.47c5.22-2.13,11.38-0.39,14.72,4.15
				c4.5,6.12,2.6,14.6-3.79,18.29c-4.57,2.64-10.11,2.06-14.01-1.03l-19.32,11.17v0l-64.4,37.14v-15.27
				C241,118.39,218.8,116.75,195.99,116.75z"/>
			<path class="st3" d="M219.14,176.61c0-13.66-11.83-24.55-25.79-23c-10.48,1.16-18.98,9.5-20.31,19.96
				c-1.31,10.3,4.16,19.46,12.54,23.69v23.07c0,5.15,3.62,9.76,8.71,10.57c6.51,1.03,12.12-3.97,12.12-10.28v-23.37
				C213.95,193.45,219.14,185.65,219.14,176.61z"/>
		</g>
	</g>
</g>
</svg>
